<?xml version="1.0" encoding="iso-8859-1"?>
<!-- Generator: Adobe Illustrator 19.0.0, SVG Export Plug-In . SVG Version: 6.00 Build 0)  -->
<svg version="1.1" fill="#E656A3" width="256px" height="256px" id="Layer_1" xmlns="http://www.w3.org/2000/svg" xmlns:xlink="http://www.w3.org/1999/xlink" x="0px" y="0px"
	 viewBox="0 0 490.001 490.001" style="enable-background:new 0 0 490.001 490.001;" xml:space="preserve">
<g>
	<g>
		<g>
			<polygon points="115.167,185 177.433,185 145.295,114.698 			"/>
			<path d="M450,0h-410c-22.056,0-40,17.944-40,40v280c0,22.056,17.944,40,40,40h235v120c0,4.118,2.524,7.814,6.358,9.314
				c1.184,0.463,2.417,0.687,3.639,0.687c2.738,0,5.42-1.126,7.35-3.218L409.38,360H450c22.056,0,40-17.944,40-40V40
				C490,17.944,472.057,0,450,0z M350,115h60v20h-60V115z M255.001,115h80v20h-80V115z M215.907,269.158L186.576,205h-79.982
				l-27.402,63.939l-18.383-7.878l75-175c1.559-3.637,5.115-6.013,9.072-6.06c3.981-0.027,7.569,2.243,9.214,5.842l80,175
				L215.907,269.158z M330,235h-75v-20h75V235z M435,185h-180v-20h180V185z"/>
		</g>
	</g>
</g>
<g>
</g>
<g>
</g>
<g>
</g>
<g>
</g>
<g>
</g>
<g>
</g>
<g>
</g>
<g>
</g>
<g>
</g>
<g>
</g>
<g>
</g>
<g>
</g>
<g>
</g>
<g>
</g>
<g>
</g>
</svg>
