<svg width="32" height="32" viewBox="0 0 32 32" fill="none" xmlns="http://www.w3.org/2000/svg">
<g clip-path="url(#clip0)">
<rect width="32" height="32" rx="16" fill="url(#paint0_linear)"/>
<path d="M6.912 15.312C6.912 14.112 7.144 12.976 7.608 11.904C8.072 10.816 8.704 9.864 9.504 9.048C10.304 8.232 11.24 7.592 12.312 7.128C13.384 6.648 14.536 6.408 15.768 6.408C16.984 6.408 18.128 6.648 19.2 7.128C20.288 7.592 21.24 8.232 22.056 9.048C22.872 9.864 23.512 10.816 23.976 11.904C24.456 12.976 24.696 14.112 24.696 15.312C24.696 16.544 24.48 17.696 24.048 18.768C23.616 19.84 23.016 20.824 22.248 21.72L25.248 21.504V24H17.64C17.32 24.064 17.008 24.112 16.704 24.144C16.4 24.176 16.088 24.192 15.768 24.192C14.536 24.192 13.384 23.96 12.312 23.496C11.24 23.032 10.304 22.4 9.504 21.6C8.704 20.784 8.072 19.84 7.608 18.768C7.144 17.696 6.912 16.544 6.912 15.312ZM9.528 15.336C9.528 16.216 9.688 17.048 10.008 17.832C10.344 18.6 10.792 19.272 11.352 19.848C11.928 20.424 12.6 20.88 13.368 21.216C14.136 21.552 14.96 21.72 15.84 21.72C16.704 21.72 17.512 21.552 18.264 21.216C19.032 20.88 19.696 20.424 20.256 19.848C20.832 19.272 21.28 18.6 21.6 17.832C21.936 17.048 22.104 16.208 22.104 15.312C22.104 14.432 21.936 13.608 21.6 12.84C21.264 12.056 20.808 11.376 20.232 10.8C19.672 10.224 19.008 9.768 18.24 9.432C17.472 9.096 16.656 8.928 15.792 8.928C14.928 8.928 14.112 9.096 13.344 9.432C12.576 9.768 11.912 10.224 11.352 10.8C10.792 11.376 10.344 12.056 10.008 12.84C9.688 13.624 9.528 14.456 9.528 15.336Z" fill="white"/>
</g>
<defs>
<linearGradient id="paint0_linear" x1="6" y1="4.5" x2="23.5" y2="30.5" gradientUnits="userSpaceOnUse">
<stop stop-color="#F761A1"/>
<stop offset="1" stop-color="#8C1BAB"/>
</linearGradient>
<clipPath id="clip0">
<rect width="32" height="32" rx="16" fill="white"/>
</clipPath>
</defs>
</svg>
