<?xml version="1.0" encoding="iso-8859-1"?>
<!-- Generator: Adobe Illustrator 19.0.0, SVG Export Plug-In . SVG Version: 6.00 Build 0)  -->
<svg version="1.1" fill="#E656A3" width="256px" height="256px" id="Capa_1" xmlns="http://www.w3.org/2000/svg" xmlns:xlink="http://www.w3.org/1999/xlink" x="0px" y="0px"
	 viewBox="0 0 490 490" style="enable-background:new 0 0 490 490;" xml:space="preserve">
<g>
	<g>
		<g>
			<path d="M220.9,207.4c0-9.7,5.7-18,14-21.9V152h20.2v33.5c8.3,3.8,14,12.2,14,21.9s-5.7,18-14,21.9v98.8h-20.2v-98.8
				C226.6,225.4,220.9,217.1,220.9,207.4z M303.1,289.7v38.4h20.2v-38.4c8.3-3.8,14-12.2,14-21.9c0-9.7-5.7-18-14-21.9V152h-20.2v94
				c-8.3,3.8-14,12.2-14,21.9C289.1,277.5,294.8,285.9,303.1,289.7z M166.7,261.9v66.2h20.2v-66.2c8.3-3.8,14-12.2,14-21.9
				c0-9.7-5.7-18-14-21.9V152h-20.2v66.1c-8.3,3.8-14,12.2-14,21.9C152.7,249.7,158.4,258.1,166.7,261.9z M457.7,111.1v241h1.7H490
				v23.3c0,21-17,37.9-37.9,37.9h-36.3H74.3H37.9c-21,0-37.9-17-37.9-37.9v-23.3h30.6h1.6v-241c0-19,15.4-34.4,34.4-34.4h356.7
				C442.3,76.7,457.7,92.1,457.7,111.1z M410.9,123.6H79.1v228.5H199v2.3c0,7.2,5.8,13,13,13h65.8c7.2,0,13-5.8,13-13v-2.3h120
				V123.6H410.9z"/>
		</g>
	</g>
</g>
<g>
</g>
<g>
</g>
<g>
</g>
<g>
</g>
<g>
</g>
<g>
</g>
<g>
</g>
<g>
</g>
<g>
</g>
<g>
</g>
<g>
</g>
<g>
</g>
<g>
</g>
<g>
</g>
<g>
</g>
</svg>
