<?xml version="1.0" encoding="iso-8859-1"?>
<!-- Generator: Adobe Illustrator 19.0.0, SVG Export Plug-In . SVG Version: 6.00 Build 0)  -->
<svg version="1.1" fill="#E656A3" width="256px" height="256px" id="Layer_1" xmlns="http://www.w3.org/2000/svg" xmlns:xlink="http://www.w3.org/1999/xlink" x="0px" y="0px"
	 viewBox="0 0 512.009 512.009" style="enable-background:new 0 0 512.009 512.009;" xml:space="preserve">
<g>
	<g>
		<g>
			<path d="M405.338,199.345v-50.011C405.338,66.867,338.478,0,256.004,0S106.671,66.867,106.671,149.333v50.011
				c-26.677,32.974-42.667,74.95-42.667,120.664c0,106.033,85.967,192,192,192s192-85.967,192-192
				C448.004,274.294,432.015,232.318,405.338,199.345z M256.004,42.667c58.909,0,106.667,47.763,106.667,106.667v11.02
				c-30.51-20.426-67.196-32.345-106.667-32.345s-76.156,11.919-106.667,32.345v-11.02C149.338,90.43,197.096,42.667,256.004,42.667
				z M256.004,469.342c-82.469,0-149.333-66.865-149.333-149.333s66.865-149.333,149.333-149.333s149.333,66.865,149.333,149.333
				S338.473,469.342,256.004,469.342z"/>
			<path d="M329.51,276.673l17.003-17.003c8.331-8.331,8.331-21.839,0-30.17c-8.331-8.331-21.839-8.331-30.17,0l-17.003,17.003
				c-6.79-4.011-14.173-7.125-22.002-9.14v-24.021c0-11.782-9.551-21.333-21.333-21.333s-21.333,9.551-21.333,21.333v24.021
				c-7.829,2.015-15.213,5.128-22.002,9.14L195.665,229.5c-8.331-8.331-21.839-8.331-30.17,0c-8.331,8.331-8.331,21.839,0,30.17
				l17.003,17.003c-4.011,6.79-7.125,14.173-9.14,22.002h-24.021c-11.782,0-21.333,9.551-21.333,21.333
				c0,11.782,9.551,21.333,21.333,21.333h24.021c2.015,7.829,5.128,15.213,9.14,22.002L165.5,380.343
				c-8.331,8.331-8.331,21.839,0,30.17c8.331,8.331,21.839,8.331,30.17,0l16.999-16.999c6.79,4.011,14.174,7.125,22.002,9.14v24.021
				c0,11.782,9.551,21.333,21.333,21.333s21.333-9.551,21.333-21.333v-24.021c7.829-2.015,15.213-5.128,22.002-9.14l16.999,16.999
				c8.331,8.331,21.839,8.331,30.17,0s8.331-21.839,0-30.17l-16.999-16.999c4.011-6.79,7.125-14.174,9.14-22.002h24.021
				c11.782,0,21.333-9.551,21.333-21.333c0-11.782-9.551-21.333-21.333-21.333h-24.021
				C336.635,290.846,333.521,283.463,329.51,276.673z M286.174,350.178c-0.007,0.007-0.013,0.016-0.021,0.023
				c-7.719,7.708-18.376,12.474-30.149,12.474s-22.43-4.766-30.149-12.474c-0.007-0.007-0.013-0.016-0.021-0.023
				s-0.016-0.013-0.023-0.021c-7.708-7.719-12.474-18.376-12.474-30.149c0-23.567,19.099-42.667,42.667-42.667
				s42.667,19.099,42.667,42.667c0,11.773-4.766,22.43-12.474,30.149C286.189,350.165,286.181,350.171,286.174,350.178z"/>
		</g>
	</g>
</g>
<g>
</g>
<g>
</g>
<g>
</g>
<g>
</g>
<g>
</g>
<g>
</g>
<g>
</g>
<g>
</g>
<g>
</g>
<g>
</g>
<g>
</g>
<g>
</g>
<g>
</g>
<g>
</g>
<g>
</g>
</svg>
