<?xml version="1.0" encoding="iso-8859-1"?>
<!-- Generator: Adobe Illustrator 19.0.0, SVG Export Plug-In . SVG Version: 6.00 Build 0)  -->
<svg fill="#E656A3" width="256px" height="256px" version="1.1" id="Layer_1" xmlns="http://www.w3.org/2000/svg" xmlns:xlink="http://www.w3.org/1999/xlink" x="0px" y="0px"
	 viewBox="0 0 490.001 490.001" style="enable-background:new 0 0 490.001 490.001;" xml:space="preserve">
<g>
	<g>
		<g>
			<path d="M135.001,95c-33.084,0-60,26.916-60,60v50c0,33.084,26.916,60,60,60c12.939,0,24.924-4.13,34.734-11.123l-26.806-26.806
				l14.143-14.143l26.806,26.806c6.992-9.81,11.123-21.795,11.123-34.734v-50C195.001,121.916,168.084,95,135.001,95z"/>
			<path d="M450,0h-410c-22.055,0-40,17.944-40,40v280c0,22.056,17.944,40,40,40h235v120c0,4.118,2.523,7.814,6.358,9.314
				c1.184,0.463,2.417,0.687,3.64,0.687c2.738,0,5.419-1.126,7.35-3.218L409.378,360H450c22.056,0,40-17.944,40-40V40
				C490,17.944,472.057,0,450,0z M350,95h60v20h-60V95z M255.001,95h80v20h-80V95z M207.93,292.071l-23.913-23.913
				C170.464,278.699,153.459,285,135.001,285c-44.112,0-80-35.888-80-80v-50c0-44.112,35.888-80,80-80s80,35.888,80,80v50
				c0,18.459-6.301,35.464-16.842,49.016l23.913,23.913L207.93,292.071z M435,265h-180v-20h180V265z M435,215h-180v-20h180V215z
				 M435,165h-180v-20h180V165z"/>
		</g>
	</g>
</g>
<g>
</g>
<g>
</g>
<g>
</g>
<g>
</g>
<g>
</g>
<g>
</g>
<g>
</g>
<g>
</g>
<g>
</g>
<g>
</g>
<g>
</g>
<g>
</g>
<g>
</g>
<g>
</g>
<g>
</g>
</svg>
