<?xml version="1.0" encoding="iso-8859-1"?>
<!-- Generator: Adobe Illustrator 19.0.0, SVG Export Plug-In . SVG Version: 6.00 Build 0)  -->
<svg version="1.1" fill="#E656A3" width="256px" height="256px" id="Layer_1" xmlns="http://www.w3.org/2000/svg" xmlns:xlink="http://www.w3.org/1999/xlink" x="0px" y="0px"
	 viewBox="0 0 491.52 491.52" style="enable-background:new 0 0 491.52 491.52;" xml:space="preserve">
<g>
	<g>
		<path d="M471.04,389.12V61.44H365.684C338.714,24.294,295.071,0,245.76,0s-92.954,24.294-119.924,61.44H20.48v327.68H0v55.44
			l46.96,46.96h397.6l46.96-46.96v-55.44H471.04z M40.96,81.92h72.4c-10.059,19.991-15.86,42.478-15.86,66.34v4.143
			c-15.511,10.042-25.82,27.463-25.82,47.277C71.68,230.735,96.945,256,128,256h15.36V143.36H128c-3.354,0-6.623,0.349-9.818,0.914
			C120.314,75.667,176.646,20.48,245.76,20.48s125.446,55.188,127.578,123.794c-3.195-0.565-6.464-0.914-9.818-0.914h-15.36V256
			h15.36c5.33,0,10.469-0.793,15.36-2.183v32.903h-73.567c-4.241-11.894-15.501-20.48-28.833-20.48h-30.72
			c-16.94,0-30.72,13.78-30.72,30.72s13.78,30.72,30.72,30.72h30.72c13.332,0,24.593-8.586,28.833-20.48h94.047v-64.109
			c12.501-10.339,20.48-25.959,20.48-43.411c0-19.814-10.309-37.235-25.82-47.277v-4.143c0-23.862-5.801-46.349-15.86-66.34h72.4
			v307.2H40.96V81.92z M122.88,164.205v70.95c-17.345-2.49-30.72-17.45-30.72-35.475C92.16,181.655,105.535,166.695,122.88,164.205z
			 M399.36,199.68c0,18.025-13.375,32.985-30.72,35.475v-70.95C385.985,166.695,399.36,181.655,399.36,199.68z M286.72,296.96
			c0,5.645-4.595,10.24-10.24,10.24h-30.72c-5.645,0-10.24-4.595-10.24-10.24c0-5.645,4.595-10.24,10.24-10.24h30.72
			C282.125,286.72,286.72,291.315,286.72,296.96z M471.04,436.08l-34.96,34.96H55.44l-34.96-34.96V409.6h450.56V436.08z"/>
	</g>
</g>
<g>
	<g>
		<rect x="194.56" y="430.08" width="20.48" height="20.48"/>
	</g>
</g>
<g>
	<g>
		<rect x="276.48" y="430.08" width="20.48" height="20.48"/>
	</g>
</g>
<g>
	<g>
		<rect x="235.52" y="430.08" width="20.48" height="20.48"/>
	</g>
</g>
<g>
	<g>
		<path d="M163.84,92.16v122.88h30.74l-0.01,37.9l68.1-37.9h65.025V92.16H163.84z M307.215,194.56h-49.86L215.06,218.1v-23.54
			h-30.74v-81.92h122.895V194.56z"/>
	</g>
</g>
<g>
</g>
<g>
</g>
<g>
</g>
<g>
</g>
<g>
</g>
<g>
</g>
<g>
</g>
<g>
</g>
<g>
</g>
<g>
</g>
<g>
</g>
<g>
</g>
<g>
</g>
<g>
</g>
<g>
</g>
</svg>
